<svg width="158" height="183" viewBox="0 0 158 183" fill="none" xmlns="http://www.w3.org/2000/svg">
<path d="M102.322 39.562L79 62.9605L55.6776 39.562L79 0L102.322 39.562ZM54.3751 78.1793L22.512 86.7463L0 46.699L45.8302 46.2139L54.3751 78.1793ZM45.8302 136.786L0 136.301L22.5078 96.2537L54.3708 104.821L45.8302 136.786ZM102.322 143.438L79 183L55.6776 143.438L79 120.039L102.322 143.438ZM158 46.699L135.492 86.7463L103.629 78.1793L112.166 46.2139L158 46.699ZM158 136.301L112.17 136.786L103.625 104.825L135.492 96.2537L158 136.301Z" fill="white"/>
</svg>
